<?xml version="1.0" encoding="UTF-8" standalone="no"?>
<!-- Created with Inkscape (http://www.inkscape.org/) -->

<svg
   xmlns:dc="http://purl.org/dc/elements/1.1/"
   xmlns:cc="http://creativecommons.org/ns#"
   xmlns:rdf="http://www.w3.org/1999/02/22-rdf-syntax-ns#"
   xmlns:svg="http://www.w3.org/2000/svg"
   xmlns="http://www.w3.org/2000/svg"
   xmlns:sodipodi="http://sodipodi.sourceforge.net/DTD/sodipodi-0.dtd"
   xmlns:inkscape="http://www.inkscape.org/namespaces/inkscape"
   width="240"
   height="130"
   viewBox="0 0 744.09449 1052.3622"
   id="svg4443"
   version="1.1"
   inkscape:version="0.92.4 (5da689c313, 2019-01-14)"
   sodipodi:docname="nutriscore-d.svg">
  <defs
     id="defs4445" />
  <sodipodi:namedview
     id="base"
     pagecolor="#ffffff"
     bordercolor="#666666"
     borderopacity="1.0"
     inkscape:pageopacity="0.0"
     inkscape:pageshadow="2"
     inkscape:zoom="1.979899"
     inkscape:cx="54.339679"
     inkscape:cy="108.07039"
     inkscape:document-units="px"
     inkscape:current-layer="layer1"
     showgrid="false"
     inkscape:window-width="1600"
     inkscape:window-height="837"
     inkscape:window-x="-8"
     inkscape:window-y="-8"
     inkscape:window-maximized="1" />
  <metadata
     id="metadata4448">
    <rdf:RDF>
      <cc:Work
         rdf:about="">
        <dc:format>image/svg+xml</dc:format>
        <dc:type
           rdf:resource="http://purl.org/dc/dcmitype/StillImage" />
        <dc:title />
      </cc:Work>
    </rdf:RDF>
  </metadata>
  <g
     inkscape:label="Calque 1"
     inkscape:groupmode="layer"
     id="layer1">
    <path
       style="opacity:1;fill:#e63e11;fill-opacity:1;fill-rule:evenodd;stroke:none;stroke-width:1;stroke-linecap:round;stroke-linejoin:round;stroke-miterlimit:4;stroke-dasharray:none;stroke-dashoffset:0;stroke-opacity:1"
       d="M 387.41112,234.17941 H 750.44089 V 820.49418 H 387.41112 Z"
       id="rect5289"
       inkscape:connector-curvature="0" />
    <path
       style="opacity:1;fill:#ee8100;fill-opacity:1;fill-rule:evenodd;stroke:none;stroke-width:1;stroke-linecap:round;stroke-linejoin:round;stroke-miterlimit:4;stroke-dasharray:none;stroke-dashoffset:0;stroke-opacity:1"
       d="m 209.66986,234.17941 h 363.0296 v 586.31477 h -363.0296 z"
       id="rect5293"
       inkscape:connector-curvature="0" />
    <path
       inkscape:connector-curvature="0"
       id="path5480"
       style="font-style:normal;font-variant:normal;font-weight:800;font-stretch:normal;font-size:medium;line-height:89.99999762%;font-family:Raleway;-inkscape-font-specification:'Raleway Ultra-Bold';letter-spacing:0px;word-spacing:0px;fill:#ffffff;fill-opacity:0.44606413;stroke:none;stroke-width:1px;stroke-linecap:butt;stroke-linejoin:miter;stroke-opacity:1"
       d="M 275.31768,665.42633 V 399.62411 h 99.2079 q 32.94453,0 57.65289,10.4823 24.70835,10.48231 41.18062,28.45211 16.84627,17.96971 25.08293,42.30368 8.61066,23.95968 8.61066,51.28864 0,30.32393 -9.35962,55.03229 -9.35962,24.33397 -26.95457,41.92939 -17.22094,17.22094 -41.92939,26.95457 -24.33397,9.35924 -54.28352,9.35924 z M 444.53269,532.15084 q 0,-17.59543 -4.86681,-31.82139 -4.49243,-14.60043 -13.47729,-25.08273 -8.98485,-10.4824 -22.08785,-16.09789 -13.1029,-5.61558 -29.57516,-5.61558 H 336.71432 V 611.5171 h 37.81126 q 16.84665,0 29.94955,-5.98988 13.1029,-5.98996 21.71346,-16.47226 8.98486,-10.85669 13.47729,-25.08274 4.86681,-14.60044 4.86681,-31.82138 z" />
    <path
       style="opacity:1;fill:#fecb02;fill-opacity:1;fill-rule:evenodd;stroke:none;stroke-width:1;stroke-linecap:round;stroke-linejoin:round;stroke-miterlimit:4;stroke-dasharray:none;stroke-dashoffset:0;stroke-opacity:1"
       d="M -173.0278,234.17941 H 210.2931 V 820.49418 H -173.0278 Z"
       id="rect5299"
       inkscape:connector-curvature="0" />
    <path
       inkscape:connector-curvature="0"
       id="path5475"
       style="font-style:normal;font-variant:normal;font-weight:800;font-stretch:normal;font-size:medium;line-height:89.99999762%;font-family:Raleway;-inkscape-font-specification:'Raleway Ultra-Bold';letter-spacing:0px;word-spacing:0px;fill:#ffffff;fill-opacity:0.44606413;stroke:none;stroke-width:1px;stroke-linecap:butt;stroke-linejoin:miter;stroke-opacity:1"
       d="m -130.88304,518.79965 q 0,-23.95968 8.98485,-47.54488 8.98486,-23.95968 26.205896,-42.67816 17.22094,-18.71848 41.92929,-30.32394 24.70836,-11.60545 56.15545,-11.60545 37.43687,0 64.76582,16.09788 27.70334,16.09788 41.180724,41.92939 l -47.170594,32.94454 q -4.49243,-10.4824 -11.60546,-17.22104 -6.73864,-7.11303 -14.97473,-11.23107 -8.23618,-4.49243 -16.84665,-5.98987 -8.61047,-1.87183 -16.84665004,-1.87183 -17.59532996,0 -30.69822996,7.11302 -13.10299,7.11294 -21.71346,18.3441 -8.61047,11.23107 -12.72852,25.45703 -4.11804,14.22605 -4.11804,28.82649 0,15.7235 4.86672,30.32394 4.86681,14.60034 13.85167,25.83141 9.35924,11.23107 22.08785,17.96981 13.1029,6.36426 29.20078,6.36426 8.23609,0 16.84665,-1.87183 8.98486,-2.24622 16.84656,-6.36436 8.23618,-4.49242 14.97482,-11.23107 6.73864,-7.11302 10.85669,-17.22094 l 50.165484,29.57517 q -5.98988,14.60044 -17.969724,26.2058 -11.60545,11.60545 -26.95456,19.46725 -15.34912,7.8618 -32.57015,11.97984 -17.22095,4.11804 -33.69321004,4.11804 -28.82649996,0 -53.16046996,-11.60545 -23.95968,-11.97984 -41.555,-31.447 -17.220946,-19.46725 -26.954566,-44.1756 -9.35924,-24.70836 -9.35924,-50.16548 z" />
    <path
       style="opacity:1;fill:#e63e11;fill-opacity:1;fill-rule:evenodd;stroke:none;stroke-width:1;stroke-linecap:round;stroke-linejoin:round;stroke-miterlimit:4;stroke-dasharray:none;stroke-dashoffset:0;stroke-opacity:1"
       d="m 708.26879,234.17941 h 90.6471 c 75.4498,0 136.1917,60.74133 136.1917,136.1913 v 313.93227 c 0,75.44996 -60.7419,136.1912 -136.1917,136.1912 h -90.6471 c -75.44982,0 -136.19172,-60.74124 -136.19172,-136.1912 V 370.37071 c 0,-75.44997 60.7419,-136.1913 136.19172,-136.1913 z"
       id="rect5315"
       inkscape:connector-curvature="0" />
    <path
       style="opacity:1;fill:#0039ff;fill-opacity:0.62973764;fill-rule:evenodd;stroke:#ffffff;stroke-width:61.03178787;stroke-linecap:round;stroke-linejoin:round;stroke-miterlimit:4;stroke-dasharray:none;stroke-dashoffset:0;stroke-opacity:1"
       d="m 371.52146,158.00475 h 39.3264 c 108.69922,0 196.20764,87.5086 196.20764,196.20764 v 343.94054 c 0,108.69904 -87.50842,196.20779 -196.20764,196.20779 h -39.3264 c -108.69914,0 -196.20774,-87.50875 -196.20774,-196.20779 V 354.21239 c 0,-108.69904 87.5086,-196.20764 196.20774,-196.20764 z"
       id="rect5317"
       inkscape:connector-curvature="0" />
    <path
       inkscape:connector-curvature="0"
       id="path5464"
       style="font-style:normal;font-variant:normal;font-weight:800;font-stretch:normal;font-size:medium;line-height:89.99999762%;font-family:Raleway;-inkscape-font-specification:'Raleway Ultra-Bold';letter-spacing:0px;word-spacing:0px;fill:#ffffff;fill-opacity:0.44606413;stroke:none;stroke-width:1px;stroke-linecap:butt;stroke-linejoin:miter;stroke-opacity:1"
       d="m 877.84199,602.28395 v 53.90914 H 691.03119 V 390.39087 h 183.441 v 53.90924 h -122.0443 v 51.66292 h 104.823 v 49.79109 h -104.823 v 56.52983 z" />
    <path
       style="opacity:1;fill:#ee8100;fill-opacity:1;fill-rule:evenodd;stroke:none;stroke-width:15.94488144;stroke-linecap:round;stroke-linejoin:round;stroke-miterlimit:4;stroke-dasharray:none;stroke-dashoffset:0;stroke-opacity:1"
       d="m 371.52146,158.00475 h 39.3264 c 108.69922,0 196.20764,87.5086 196.20764,196.20764 v 343.94054 c 0,108.69904 -87.50842,196.20779 -196.20764,196.20779 h -39.3264 c -108.69914,0 -196.20774,-87.50875 -196.20774,-196.20779 V 354.21239 c 0,-108.69904 87.5086,-196.20764 196.20774,-196.20764 z"
       id="rect5323"
       inkscape:connector-curvature="0" />
    <path
       inkscape:connector-curvature="0"
       id="path5460"
       style="font-style:normal;font-variant:normal;font-weight:800;font-stretch:normal;font-size:medium;line-height:89.99999762%;font-family:Raleway;-inkscape-font-specification:'Raleway Ultra-Bold';letter-spacing:0px;word-spacing:0px;fill:#ffffff;fill-opacity:1;stroke:none;stroke-width:1px;stroke-linecap:butt;stroke-linejoin:miter;stroke-opacity:1"
       d="M 251.05809,708.58023 V 358.1422 h 119.97912 q 39.84173,0 69.72399,13.82007 29.88131,13.82007 49.80251,37.51176 20.37324,23.6916 30.33431,55.77393 10.41311,31.58879 10.41311,67.61967 0,39.97962 -11.31815,72.55548 -11.31909,32.08233 -32.59831,55.28039 -20.82642,22.70443 -50.70859,35.53735 -29.42832,12.33938 -65.64887,12.33938 z m 204.64377,-175.7126 q 0,-23.19797 -5.88623,-41.95375 -5.43229,-19.24952 -16.29869,-33.06959 -10.86648,-13.82007 -26.71218,-21.22364 -15.84664,-7.40367 -35.76755,-7.40367 h -45.72796 v 208.28846 h 45.72796 q 20.3739,0 36.22055,-7.8972 15.84569,-7.8971 26.25918,-21.71718 10.8664,-14.31379 16.29869,-33.06958 5.88623,-19.24942 5.88623,-41.95385 z" />
  </g>
</svg>
