<?xml version="1.0" encoding="UTF-8" standalone="no"?>
<!-- Created with Inkscape (http://www.inkscape.org/) -->

<svg
   xmlns:dc="http://purl.org/dc/elements/1.1/"
   xmlns:cc="http://creativecommons.org/ns#"
   xmlns:rdf="http://www.w3.org/1999/02/22-rdf-syntax-ns#"
   xmlns:svg="http://www.w3.org/2000/svg"
   xmlns="http://www.w3.org/2000/svg"
   xmlns:sodipodi="http://sodipodi.sourceforge.net/DTD/sodipodi-0.dtd"
   xmlns:inkscape="http://www.inkscape.org/namespaces/inkscape"
   width="240"
   height="130"
   viewBox="0 0 744.09449 1052.3622"
   id="svg4443"
   version="1.1"
   inkscape:version="0.92.4 (5da689c313, 2019-01-14)"
   sodipodi:docname="nutriscore-c.svg">
  <defs
     id="defs4445" />
  <sodipodi:namedview
     id="base"
     pagecolor="#ffffff"
     bordercolor="#666666"
     borderopacity="1.0"
     inkscape:pageopacity="0.0"
     inkscape:pageshadow="2"
     inkscape:zoom="1.979899"
     inkscape:cx="-57.653688"
     inkscape:cy="95.735928"
     inkscape:document-units="px"
     inkscape:current-layer="layer1"
     showgrid="false"
     inkscape:window-width="1600"
     inkscape:window-height="837"
     inkscape:window-x="-8"
     inkscape:window-y="-8"
     inkscape:window-maximized="1" />
  <metadata
     id="metadata4448">
    <rdf:RDF>
      <cc:Work
         rdf:about="">
        <dc:format>image/svg+xml</dc:format>
        <dc:type
           rdf:resource="http://purl.org/dc/dcmitype/StillImage" />
        <dc:title />
      </cc:Work>
    </rdf:RDF>
  </metadata>
  <g
     inkscape:label="Calque 1"
     inkscape:groupmode="layer"
     id="layer1">
    <path
       style="opacity:1;fill:#ee8100;fill-opacity:1;fill-rule:evenodd;stroke:none;stroke-width:1;stroke-linecap:round;stroke-linejoin:round;stroke-miterlimit:4;stroke-dasharray:none;stroke-dashoffset:0;stroke-opacity:1"
       d="m 554.09413,234.17951 h 363.0296 v 586.31477 h -363.0296 z"
       id="rect5245"
       inkscape:connector-curvature="0" />
    <path
       inkscape:connector-curvature="0"
       id="path5531"
       style="font-style:normal;font-variant:normal;font-weight:800;font-stretch:normal;font-size:medium;line-height:89.99999762%;font-family:Raleway;-inkscape-font-specification:'Raleway Ultra-Bold';letter-spacing:0px;word-spacing:0px;fill:#ffffff;fill-opacity:0.44606413;stroke:none;stroke-width:1px;stroke-linecap:butt;stroke-linejoin:miter;stroke-opacity:1"
       d="M 642.69839,656.19319 V 390.39088 h 99.2078 q 32.94453,0 57.65289,10.4824 24.70835,10.4823 41.18024,28.45201 16.84732,17.96981 25.08302,42.30377 8.61066,23.95968 8.61066,51.28864 0,30.32384 -9.35962,55.03229 -9.35867,24.33397 -26.954,41.92929 -17.22122,17.22104 -41.92958,26.95467 -24.33406,9.35924 -54.28361,9.35924 z M 811.9133,522.9177 q 0,-17.59543 -4.86681,-31.82138 -4.49243,-14.60044 -13.47729,-25.08284 -8.98485,-10.4823 -22.08785,-16.09779 -13.1029,-5.61558 -29.57516,-5.61558 h -37.81126 v 157.98385 h 37.81126 q 16.84665,0 29.94955,-5.98988 13.10299,-5.98996 21.71346,-16.47226 8.98486,-10.85669 13.47729,-25.08274 4.86681,-14.60044 4.86681,-31.82138 z" />
    <path
       style="opacity:1;fill:#fecb02;fill-opacity:1;fill-rule:evenodd;stroke:none;stroke-width:1;stroke-linecap:round;stroke-linejoin:round;stroke-miterlimit:4;stroke-dasharray:none;stroke-dashoffset:0;stroke-opacity:1"
       d="m 171.39647,234.17951 h 383.3209 v 586.31477 h -383.3209 z"
       id="rect5251"
       inkscape:connector-curvature="0" />
    <path
       style="opacity:1;fill:#85bb2f;fill-opacity:1;fill-rule:evenodd;stroke:none;stroke-width:1;stroke-linecap:round;stroke-linejoin:round;stroke-miterlimit:4;stroke-dasharray:none;stroke-dashoffset:0;stroke-opacity:1"
       d="M 190.00228,234.17951 H -173.0278 v 586.31477 h 363.03008 z"
       id="rect5253"
       inkscape:connector-curvature="0" />
    <path
       inkscape:connector-curvature="0"
       id="path5526"
       style="font-style:normal;font-variant:normal;font-weight:800;font-stretch:normal;font-size:medium;line-height:89.99999762%;font-family:Raleway;-inkscape-font-specification:'Raleway Ultra-Bold';letter-spacing:0px;word-spacing:0px;fill:#ffffff;fill-opacity:0.44606413;stroke:none;stroke-width:1px;stroke-linecap:butt;stroke-linejoin:miter;stroke-opacity:1"
       d="m 241.94823,530.27901 q 0,-23.95968 8.98485,-47.54488 8.98495,-23.95967 26.2059,-42.67816 17.22103,-18.71848 41.92939,-30.32384 24.70835,-11.60545 56.15535,-11.60545 37.43696,0 64.76591,16.09788 27.70334,16.09788 41.18063,41.9293 l -47.1705,32.94453 q -4.49243,-10.4823 -11.60545,-17.22104 -6.73865,-7.11293 -14.97483,-11.23107 -8.23608,-4.49242 -16.84655,-5.98987 -8.61057,-1.87183 -16.84666,-1.87183 -17.59532,0 -30.69832,7.11303 -13.1029,7.11303 -21.71337,18.3441 -8.61047,11.23107 -12.72861,25.45712 -4.11804,14.22596 -4.11804,28.8264 0,15.7235 4.86681,30.32393 4.86681,14.60035 13.85167,25.83151 9.35924,11.23107 22.08776,17.96971 13.10299,6.36426 29.20087,6.36426 8.23609,0 16.84656,-1.87183 8.98486,-2.24621 16.84665,-6.36435 8.23609,-4.49243 14.97473,-11.23107 6.73864,-7.11303 10.85678,-17.22094 l 50.16548,29.57516 q -5.98997,14.60044 -17.96971,26.2059 -11.60546,11.60545 -26.95467,19.46715 -15.34911,7.8618 -32.57005,11.97984 -17.22104,4.11805 -33.69331,4.11805 -28.82639,0 -53.16046,-11.60546 -23.95958,-11.97984 -41.55491,-31.44699 -17.22104,-19.46725 -26.95466,-44.17561 -9.35924,-24.70835 -9.35924,-50.16548 z" />
    <path
       inkscape:connector-curvature="0"
       id="path5523"
       style="font-style:normal;font-variant:normal;font-weight:800;font-stretch:normal;font-size:medium;line-height:89.99999762%;font-family:Raleway;-inkscape-font-specification:'Raleway Ultra-Bold';letter-spacing:0px;word-spacing:0px;fill:#ffffff;fill-opacity:0.44606413;stroke:none;stroke-width:1px;stroke-linecap:butt;stroke-linejoin:miter;stroke-opacity:1"
       d="m 80.297999,588.0579 q 0,17.22104 -7.113027,29.94956 -7.113026,12.7286 -19.467256,21.33908 -12.35412,8.23608 -28.82639,12.72851 -16.47227,4.11814 -34.81637,4.11814 H -139.45678 V 390.39088 H 8.419056 q 13.85167,0 25.08274,5.98997 11.23107,5.98987 19.09287,15.7235 7.8617,9.35924 11.97984,21.71346 4.49242,11.97975 4.49242,24.70836 0,19.09277 -9.73362,35.93942 -9.35924,16.84665 -28.45211,25.45712 22.83652,6.73865 35.93952,23.95968 13.477283,17.22095 13.477283,44.17551 z M 17.778296,575.70377 q 0,-12.35422 -7.11303,-20.96469 -7.11302,-8.61047 -17.96971,-8.61047 h -70.75579 v 58.02718 h 68.13519 q 11.97984,0 19.84154,-7.86171 7.8618,-7.86179 7.8618,-20.59031 z m -95.83853,-132.9011 v 55.03229 h 60.2734 q 10.10801,0 17.96979996,-6.73864 7.86170004,-6.73874 7.86170004,-20.9647 0,-13.10299 -7.11302004,-20.21593 -6.73863996,-7.11302 -16.47226996,-7.11302 z" />
    <path
       style="opacity:1;fill:#0039ff;fill-opacity:0.62973764;fill-rule:evenodd;stroke:#ffffff;stroke-width:61.03178787;stroke-linecap:round;stroke-linejoin:round;stroke-miterlimit:4;stroke-dasharray:none;stroke-dashoffset:0;stroke-opacity:1"
       d="m 343.39377,158.00475 h 39.3264 c 108.69904,0 196.20765,87.50871 196.20765,196.20774 v 343.94054 c 0,108.69904 -87.50861,196.20769 -196.20765,196.20769 h -39.3264 c -108.69913,0 -196.20774,-87.50865 -196.20774,-196.20769 V 354.21249 c 0,-108.69903 87.50861,-196.20774 196.20774,-196.20774 z"
       id="rect5263"
       inkscape:connector-curvature="0" />
    <path
       style="opacity:1;fill:#fecb02;fill-opacity:1;fill-rule:evenodd;stroke:none;stroke-width:15.94488144;stroke-linecap:round;stroke-linejoin:round;stroke-miterlimit:4;stroke-dasharray:none;stroke-dashoffset:0;stroke-opacity:1"
       d="m 343.39377,158.00475 h 39.3264 c 108.69904,0 196.20765,87.50871 196.20765,196.20774 v 343.94054 c 0,108.69904 -87.50861,196.20769 -196.20765,196.20769 h -39.3264 c -108.69913,0 -196.20774,-87.50865 -196.20774,-196.20769 V 354.21249 c 0,-108.69903 87.50861,-196.20774 196.20774,-196.20774 z"
       id="rect5275"
       inkscape:connector-curvature="0" />
    <path
       inkscape:connector-curvature="0"
       id="path5511"
       style="font-style:normal;font-variant:normal;font-weight:800;font-stretch:normal;font-size:medium;line-height:89.99999762%;font-family:Raleway;-inkscape-font-specification:'Raleway Ultra-Bold';letter-spacing:0px;word-spacing:0px;fill:#ffffff;fill-opacity:1;stroke:none;stroke-width:1px;stroke-linecap:butt;stroke-linejoin:miter;stroke-opacity:1"
       d="m 216.59169,530.39987 q 0,-31.58869 10.86611,-62.68395 10.86601,-31.5888 31.69262,-56.26746 20.82661,-24.67876 50.70821,-39.97953 29.8816,-15.30086 67.91279,-15.30086 45.27516,0 78.32637,21.22374 33.50345,21.22374 49.80223,55.28029 l -57.04649,43.43464 q -5.43324,-13.82007 -14.03562,-22.70443 -8.1493,-9.3779 -18.1099,-14.80724 -9.9605,-5.92297 -20.37371,-7.8972 -10.4134,-2.46795 -20.3739,-2.46795 -21.27932,0 -37.12567,9.3779 -15.84627,9.37789 -26.25957,24.18522 -10.41331,14.80724 -15.39356,33.56302 -4.98025,18.75588 -4.98025,38.0052 0,20.73021 5.88576,39.97963 5.88576,19.24951 16.75177,34.05665 11.31882,14.80723 26.71237,23.69159 15.84636,8.39073 35.31466,8.39073 9.9606,0 20.37381,-2.46785 10.8661,-2.96139 20.3739,-8.39073 9.9605,-5.92297 18.11037,-14.80724 8.14929,-9.37799 13.12954,-22.70443 l 60.66862,38.99236 q -7.24435,19.24942 -21.73192,34.55028 -14.03562,15.30077 -32.59841,25.66582 -18.56279,10.36515 -39.38921,15.7944 -20.82661,5.42934 -40.74771,5.42934 -34.86185,0 -64.29075,-15.30077 -28.97609,-15.79449 -50.25541,-41.46031 -20.82661,-25.66583 -32.59822,-58.24188 -11.31882,-32.57586 -11.31883,-66.13898 z" />
  </g>
</svg>
