<?xml version="1.0" encoding="UTF-8" standalone="no"?>
<!-- Created with Inkscape (http://www.inkscape.org/) -->

<svg
   xmlns:dc="http://purl.org/dc/elements/1.1/"
   xmlns:cc="http://creativecommons.org/ns#"
   xmlns:rdf="http://www.w3.org/1999/02/22-rdf-syntax-ns#"
   xmlns:svg="http://www.w3.org/2000/svg"
   xmlns="http://www.w3.org/2000/svg"
   xmlns:sodipodi="http://sodipodi.sourceforge.net/DTD/sodipodi-0.dtd"
   xmlns:inkscape="http://www.inkscape.org/namespaces/inkscape"
   width="240"
   height="130"
   viewBox="0 0 744.09449 1052.3622"
   id="svg4443"
   version="1.1"
   inkscape:version="0.92.4 (5da689c313, 2019-01-14)"
   sodipodi:docname="nutriscore-b.svg">
  <defs
     id="defs4445" />
  <sodipodi:namedview
     id="base"
     pagecolor="#ffffff"
     bordercolor="#666666"
     borderopacity="1.0"
     inkscape:pageopacity="0.0"
     inkscape:pageshadow="2"
     inkscape:zoom="4.6666667"
     inkscape:cx="120"
     inkscape:cy="65"
     inkscape:document-units="px"
     inkscape:current-layer="layer1"
     showgrid="false"
     inkscape:window-width="1600"
     inkscape:window-height="837"
     inkscape:window-x="-8"
     inkscape:window-y="-8"
     inkscape:window-maximized="1"
     inkscape:snap-grids="true"
     inkscape:lockguides="true" />
  <metadata
     id="metadata4448">
    <rdf:RDF>
      <cc:Work
         rdf:about="">
        <dc:format>image/svg+xml</dc:format>
        <dc:type
           rdf:resource="http://purl.org/dc/dcmitype/StillImage" />
        <dc:title />
      </cc:Work>
    </rdf:RDF>
  </metadata>
  <g
     inkscape:label="Calque 1"
     inkscape:groupmode="layer"
     id="layer1">
    <path
       style="opacity:1;fill:#ffffff;fill-opacity:1;fill-rule:evenodd;stroke:none;stroke-width:0.87440747;stroke-linecap:round;stroke-linejoin:round;stroke-miterlimit:4;stroke-dasharray:none;stroke-dashoffset:0;stroke-opacity:1"
       d="m -1382.2452,1543.0609 h 989.20232 c 62.3424,0 112.5308,98.2368 112.5308,220.2619 v 773.7404 c 0,122.0251 -50.1884,220.2619 -112.5308,220.2619 h -989.20232 c -62.3422,0 -112.5309,-98.2368 -112.5309,-220.2619 v -773.7404 c 0,-122.0251 50.1887,-220.2619 112.5309,-220.2619 z"
       id="rect5161"
       inkscape:connector-curvature="0" />
    <path
       style="opacity:1;fill:#038141;fill-opacity:1;fill-rule:evenodd;stroke:none;stroke-width:1;stroke-linecap:round;stroke-linejoin:round;stroke-miterlimit:4;stroke-dasharray:none;stroke-dashoffset:0;stroke-opacity:1"
       d="M 37.029587,234.17958 H 400.0596 V 820.49434 H 37.029587 Z"
       id="rect5163"
       inkscape:connector-curvature="0" />
    <path
       style="opacity:1;fill:#038141;fill-opacity:1;fill-rule:evenodd;stroke:none;stroke-width:1;stroke-linecap:round;stroke-linejoin:round;stroke-miterlimit:4;stroke-dasharray:none;stroke-dashoffset:0;stroke-opacity:1"
       d="m -36.836625,234.17958 h 90.64758 c 75.449915,0 136.191225,60.74132 136.191225,136.1912 v 313.93236 c 0,75.44988 -60.74131,136.1912 -136.191225,136.1912 h -90.64758 c -75.449935,0 -136.191175,-60.74132 -136.191175,-136.1912 V 370.37078 c 0,-75.44988 60.74124,-136.1912 136.191175,-136.1912 z"
       id="rect5167"
       inkscape:connector-curvature="0" />
    <path
       style="opacity:1;fill:#fecb02;fill-opacity:1;fill-rule:evenodd;stroke:none;stroke-width:1;stroke-linecap:round;stroke-linejoin:round;stroke-miterlimit:4;stroke-dasharray:none;stroke-dashoffset:0;stroke-opacity:1"
       d="m 533.80387,234.17958 h 383.3209 v 586.31476 h -383.3209 z"
       id="rect5175"
       inkscape:connector-curvature="0" />
    <path
       style="opacity:1;fill:#85bb2f;fill-opacity:1;fill-rule:evenodd;stroke:none;stroke-width:1;stroke-linecap:round;stroke-linejoin:round;stroke-miterlimit:4;stroke-dasharray:none;stroke-dashoffset:0;stroke-opacity:1"
       d="M 552.40968,234.17958 H 189.3796 v 586.31476 h 363.03008 z"
       id="rect5177"
       inkscape:connector-curvature="0" />
    <path
       inkscape:connector-curvature="0"
       id="path5595"
       style="font-style:normal;font-variant:normal;font-weight:800;font-stretch:normal;font-size:medium;line-height:89.99999762%;font-family:Raleway;-inkscape-font-specification:'Raleway Ultra-Bold';letter-spacing:0px;word-spacing:0px;fill:#ffffff;fill-opacity:0.44606413;stroke:none;stroke-width:1px;stroke-linecap:butt;stroke-linejoin:miter;stroke-opacity:1"
       d="m 638.79018,518.79991 q 0,-23.95968 8.98486,-47.54488 8.98486,-23.95968 26.20589,-42.67816 17.22095,-18.71848 41.9293,-30.32394 24.70845,-11.60536 56.15544,-11.60536 37.43697,0 64.76592,16.09789 27.70334,16.09788 41.18062,41.92929 l -47.17059,32.94454 q -4.49242,-10.4824 -11.60545,-17.22104 -6.73864,-7.11303 -14.97473,-11.23107 -8.23609,-4.49243 -16.84665,-5.98987 -8.61047,-1.87183 -16.84656,-1.87183 -17.59542,0 -30.69832,7.11303 -13.1029,7.11302 -21.71347,18.34409 -8.61047,11.23107 -12.72851,25.45713 -4.11804,14.22595 -4.11804,28.82639 0,15.7235 4.86681,30.32394 4.86681,14.60034 13.85167,25.83141 9.35924,11.23117 22.08775,17.96981 13.1029,6.36426 29.20078,6.36426 8.23619,0 16.84666,-1.87183 8.98485,-2.24622 16.84665,-6.36435 8.23609,-4.49243 14.97473,-11.23107 6.73864,-7.11303 10.85668,-17.22095 l 50.16548,29.57517 q -5.98987,14.60044 -17.96971,26.20589 -11.60546,11.60536 -26.95457,19.46716 -15.34911,7.8618 -32.57015,11.97984 -17.22094,4.11804 -33.69321,4.11804 -28.8264,0 -53.16046,-11.60545 -23.95959,-11.97984 -41.55501,-31.447 -17.22094,-19.46725 -26.95457,-44.1756 -9.35924,-24.70836 -9.35924,-50.16548 z" />
    <path
       inkscape:connector-curvature="0"
       id="path5592"
       style="font-style:normal;font-variant:normal;font-weight:800;font-stretch:normal;font-size:medium;line-height:89.99999762%;font-family:Raleway;-inkscape-font-specification:'Raleway Ultra-Bold';letter-spacing:0px;word-spacing:0px;fill:#ffffff;fill-opacity:0.44606413;stroke:none;stroke-width:1px;stroke-linecap:butt;stroke-linejoin:miter;stroke-opacity:1"
       d="m 500.09687,597.2913 q 0,17.22104 -7.11303,29.94956 -7.11303,12.72861 -19.46725,21.33908 -12.35413,8.23618 -28.8264,12.72861 -16.47226,4.11804 -34.81636,4.11804 H 280.342 V 399.62438 h 147.87593 q 13.85167,0 25.08273,5.98987 11.23107,5.98987 19.09287,15.7235 7.8617,9.35924 11.97984,21.71346 4.49243,11.97984 4.49243,24.70836 0,19.09286 -9.73363,35.93942 -9.35924,16.84665 -28.45211,25.45712 22.83653,6.73865 35.93952,23.95968 13.47729,17.22095 13.47729,44.17551 z m -62.5197,-12.35413 q 0,-12.35422 -7.11303,-20.96469 -7.11303,-8.61047 -17.96971,-8.61047 h -70.75579 v 58.02718 h 68.13519 q 11.97984,0 19.84154,-7.8617 7.8618,-7.8618 7.8618,-20.59032 z m -95.83853,-132.9011 v 55.03229 h 60.27339 q 10.10801,0 17.96981,-6.73864 7.8617,-6.73865 7.8617,-20.9647 0,-13.1029 -7.11302,-20.21592 -6.73865,-7.11303 -16.47227,-7.11303 z" />
    <path
       style="opacity:1;fill:#0039ff;fill-opacity:0.62973764;fill-rule:evenodd;stroke:#ffffff;stroke-width:61.03178787;stroke-linecap:round;stroke-linejoin:round;stroke-miterlimit:4;stroke-dasharray:none;stroke-dashoffset:0;stroke-opacity:1"
       d="m 353.27053,158.00491 h 39.3264 c 108.69903,0 196.20764,87.50861 196.20764,196.20765 V 698.1531 c 0,108.69904 -87.50861,196.20762 -196.20764,196.20762 h -39.3264 c -108.69914,0 -196.20774,-87.50858 -196.20774,-196.20762 V 354.21256 c 0,-108.69904 87.5086,-196.20765 196.20774,-196.20765 z"
       id="rect5187"
       inkscape:connector-curvature="0" />
    <path
       inkscape:connector-curvature="0"
       id="path5588"
       style="font-style:normal;font-variant:normal;font-weight:800;font-stretch:normal;font-size:medium;line-height:89.99999762%;font-family:Raleway;-inkscape-font-specification:'Raleway Ultra-Bold';letter-spacing:0px;word-spacing:0px;fill:#ffffff;fill-opacity:0.44606413;stroke:none;stroke-width:1px;stroke-linecap:butt;stroke-linejoin:miter;stroke-opacity:1"
       d="M -39.167725,390.39114 H 16.238956 L 113.20065,656.19335 H 50.306545 L 29.716238,596.66863 h -82.735633 l -20.215925,59.52472 h -62.89396 z m 58.776052,163.97381 -31.072713,-93.9667 -31.821379,93.9667 z" />
    <path
       style="opacity:1;fill:#85bb2f;fill-opacity:1;fill-rule:evenodd;stroke:none;stroke-width:15.94488144;stroke-linecap:round;stroke-linejoin:round;stroke-miterlimit:4;stroke-dasharray:none;stroke-dashoffset:0;stroke-opacity:1"
       d="m 353.27053,158.00491 h 39.3264 c 108.69903,0 196.20764,87.50861 196.20764,196.20765 V 698.1531 c 0,108.69904 -87.50861,196.20762 -196.20764,196.20762 h -39.3264 c -108.69914,0 -196.20774,-87.50858 -196.20774,-196.20762 V 354.21256 c 0,-108.69904 87.5086,-196.20765 196.20774,-196.20765 z"
       id="rect5199"
       inkscape:connector-curvature="0" />
    <path
       inkscape:connector-curvature="0"
       id="path5580"
       style="font-style:normal;font-variant:normal;font-weight:800;font-stretch:normal;font-size:medium;line-height:89.99999762%;font-family:Raleway;-inkscape-font-specification:'Raleway Ultra-Bold';letter-spacing:0px;word-spacing:0px;fill:#ffffff;fill-opacity:1;stroke:none;stroke-width:1px;stroke-linecap:butt;stroke-linejoin:miter;stroke-opacity:1"
       d="m 505.81632,618.74982 q 0,22.70443 -8.60228,39.48599 -8.60229,16.78146 -23.54305,28.13368 -14.94084,10.85869 -34.86193,16.78156 -19.92111,5.42934 -42.10593,5.42934 H 240.05104 V 358.14236 h 178.83691 q 16.75178,0 30.3344,7.8972 13.58254,7.8972 23.09033,20.73021 9.5077,12.33928 14.48805,28.62731 5.43305,15.7943 5.43305,32.57586 0,25.17238 -11.77161,47.38319 -11.31881,22.2109 -34.40905,33.56311 27.61787,8.88427 43.46414,31.5887 16.29906,22.70444 16.29906,58.24188 z m -75.60955,-16.28803 q 0,-16.28793 -8.60229,-27.64014 -8.60229,-11.35222 -21.73202,-11.35222 h -85.57017 v 76.50413 h 82.40084 q 14.48804,0 23.99584,-10.36515 9.5078,-10.36506 9.5078,-27.14662 z M 314.30229,427.24283 v 72.55548 h 72.89304 q 12.22432,0 21.73212,-8.88436 9.50779,-8.88427 9.50779,-27.64015 0,-17.27509 -8.60228,-26.65299 -8.14958,-9.37798 -19.9212,-9.37798 z" />
  </g>
</svg>
