<?xml version="1.0" encoding="UTF-8" standalone="no"?>
<!-- Created with Inkscape (http://www.inkscape.org/) -->

<svg
   xmlns:dc="http://purl.org/dc/elements/1.1/"
   xmlns:cc="http://creativecommons.org/ns#"
   xmlns:rdf="http://www.w3.org/1999/02/22-rdf-syntax-ns#"
   xmlns:svg="http://www.w3.org/2000/svg"
   xmlns="http://www.w3.org/2000/svg"
   xmlns:sodipodi="http://sodipodi.sourceforge.net/DTD/sodipodi-0.dtd"
   xmlns:inkscape="http://www.inkscape.org/namespaces/inkscape"
   width="240"
   height="130"
   viewBox="0 0 744.09449 1052.3622"
   id="svg4443"
   version="1.1"
   inkscape:version="0.92.4 (5da689c313, 2019-01-14)"
   sodipodi:docname="nutriscore-e.svg">
  <defs
     id="defs4445" />
  <sodipodi:namedview
     id="base"
     pagecolor="#ffffff"
     bordercolor="#666666"
     borderopacity="1.0"
     inkscape:pageopacity="0.0"
     inkscape:pageshadow="2"
     inkscape:zoom="1.979899"
     inkscape:cx="-57.653688"
     inkscape:cy="135.22009"
     inkscape:document-units="px"
     inkscape:current-layer="layer1"
     showgrid="false"
     inkscape:window-width="1600"
     inkscape:window-height="837"
     inkscape:window-x="-8"
     inkscape:window-y="-8"
     inkscape:window-maximized="1" />
  <metadata
     id="metadata4448">
    <rdf:RDF>
      <cc:Work
         rdf:about="">
        <dc:format>image/svg+xml</dc:format>
        <dc:type
           rdf:resource="http://purl.org/dc/dcmitype/StillImage" />
        <dc:title />
      </cc:Work>
    </rdf:RDF>
  </metadata>
  <g
     inkscape:label="Calque 1"
     inkscape:groupmode="layer"
     id="layer1">
    <path
       style="opacity:1;fill:#e63e11;fill-opacity:1;fill-rule:evenodd;stroke:none;stroke-width:1;stroke-linecap:round;stroke-linejoin:round;stroke-miterlimit:4;stroke-dasharray:none;stroke-dashoffset:0;stroke-opacity:1"
       d="M 355.77144,234.17931 H 718.80121 V 820.49408 H 355.77144 Z"
       id="rect5337"
       inkscape:connector-curvature="0" />
    <path
       style="opacity:1;fill:#ee8100;fill-opacity:1;fill-rule:evenodd;stroke:none;stroke-width:1;stroke-linecap:round;stroke-linejoin:round;stroke-miterlimit:4;stroke-dasharray:none;stroke-dashoffset:0;stroke-opacity:1"
       d="m 178.03018,234.17931 h 363.0296 v 586.31477 h -363.0296 z"
       id="rect5341"
       inkscape:connector-curvature="0" />
    <path
       inkscape:connector-curvature="0"
       id="path5429"
       style="font-style:normal;font-variant:normal;font-weight:800;font-stretch:normal;font-size:medium;line-height:89.99999762%;font-family:Raleway;-inkscape-font-specification:'Raleway Ultra-Bold';letter-spacing:0px;word-spacing:0px;fill:#ffffff;fill-opacity:0.44606413;stroke:none;stroke-width:1px;stroke-linecap:butt;stroke-linejoin:miter;stroke-opacity:1"
       d="M 207.15416,656.19299 V 390.39078 h 99.2079 q 32.94453,0 57.65289,10.4823 24.70835,10.48239 41.18062,28.45211 16.84665,17.96971 25.08274,42.30368 8.61047,23.95968 8.61047,51.28863 0,30.32394 -9.35924,55.03229 -9.35924,24.33397 -26.95457,41.92939 -17.22094,17.22094 -41.92939,26.95457 -24.33397,9.35924 -54.28352,9.35924 z M 376.36917,522.9175 q 0,-17.59533 -4.86681,-31.82138 -4.49243,-14.60044 -13.47729,-25.08274 -8.98495,-10.48239 -22.08785,-16.09788 -13.1029,-5.61558 -29.57516,-5.61558 H 268.5508 v 157.98384 h 37.81126 q 16.84665,0 29.94955,-5.98987 13.1029,-5.98987 21.71346,-16.47227 8.98486,-10.85669 13.47729,-25.08274 4.86681,-14.60044 4.86681,-31.82138 z" />
    <path
       style="opacity:1;fill:#fecb02;fill-opacity:1;fill-rule:evenodd;stroke:none;stroke-width:1;stroke-linecap:round;stroke-linejoin:round;stroke-miterlimit:4;stroke-dasharray:none;stroke-dashoffset:0;stroke-opacity:1"
       d="m -204.66748,234.17931 h 383.3209 v 586.31477 h -383.3209 z"
       id="rect5347"
       inkscape:connector-curvature="0" />
    <path
       inkscape:connector-curvature="0"
       id="path5424"
       style="font-style:normal;font-variant:normal;font-weight:800;font-stretch:normal;font-size:medium;line-height:89.99999762%;font-family:Raleway;-inkscape-font-specification:'Raleway Ultra-Bold';letter-spacing:0px;word-spacing:0px;fill:#ffffff;fill-opacity:0.44606413;stroke:none;stroke-width:1px;stroke-linecap:butt;stroke-linejoin:miter;stroke-opacity:1"
       d="m -134.11554,518.79955 q 0,-23.95968 8.98485,-47.54497 8.98495,-23.95959 26.205902,-42.67807 17.22103,-18.71848 41.92939,-30.32393 24.70835,-11.60546 56.15534967,-11.60546 37.43696033,0 64.76591033,16.09788 27.70334,16.09789 41.180628,41.9294 l -47.170498,32.94444 q -4.49243,-10.4823 -11.60545,-17.22095 -6.73865,-7.11302 -14.97483,-11.23107 -8.23608,-4.49242 -16.84655,-5.98996 -8.6105703,-1.87183 -16.8466603,-1.87183 -17.5953197,0 -30.6983197,7.11302 -13.1029,7.11303 -21.71337,18.3441 -8.61047,11.23107 -12.72861,25.45712 -4.11804,14.22606 -4.11804,28.8265 0,15.72349 4.86681,30.32384 4.86681,14.60044 13.85167,25.83151 9.35924,11.23107 22.08776,17.96971 13.10299,6.36426 29.2008697,6.36426 8.23609,0 16.8465603,-1.87183 8.98486,-2.24622 16.84665,-6.36426 8.23609,-4.49243 14.97474,-11.23107 6.73863,-7.11303 10.85678,-17.22104 l 50.165478,29.57526 q -5.98997,14.60035 -17.969718,26.2058 -11.60545,11.60546 -26.95467,19.46725 -15.34911,7.86171 -32.57005,11.97975 -17.22104,4.11814 -33.6933003,4.11814 -28.8263997,0 -53.1604597,-11.60546 -23.95959,-11.97984 -41.55492,-31.44709 -17.221042,-19.46716 -26.954652,-44.17551 -9.35924,-24.70845 -9.35925,-50.16548 z" />
    <path
       style="opacity:1;fill:#0039ff;fill-opacity:0.62973764;fill-rule:evenodd;stroke:#ffffff;stroke-width:61.03178787;stroke-linecap:round;stroke-linejoin:round;stroke-miterlimit:4;stroke-dasharray:none;stroke-dashoffset:0;stroke-opacity:1"
       d="m 682.71121,158.00494 h 39.3266 c 108.6992,0 196.2076,87.5086 196.2076,196.20764 v 343.94054 c 0,108.69904 -87.5084,196.2076 -196.2076,196.2076 h -39.3266 c -108.69909,0 -196.20751,-87.50856 -196.20751,-196.2076 V 354.21258 c 0,-108.69904 87.50842,-196.20764 196.20751,-196.20764 z"
       id="rect5359"
       inkscape:connector-curvature="0" />
    <path
       style="opacity:1;fill:#e63e11;fill-opacity:1;fill-rule:evenodd;stroke:none;stroke-width:1;stroke-linecap:round;stroke-linejoin:round;stroke-miterlimit:4;stroke-dasharray:none;stroke-dashoffset:0;stroke-opacity:1"
       d="m 676.62911,234.17931 h 90.6471 c 75.4498,0 136.1917,60.74133 136.1917,136.19121 v 313.93236 c 0,75.44997 -60.7419,136.1912 -136.1917,136.1912 h -90.6471 c -75.44982,0 -136.19172,-60.74123 -136.19172,-136.1912 V 370.37052 c 0,-75.44988 60.7419,-136.19121 136.19172,-136.19121 z"
       id="rect5365"
       inkscape:connector-curvature="0" />
    <path
       inkscape:connector-curvature="0"
       id="path5413"
       style="font-style:normal;font-variant:normal;font-weight:800;font-stretch:normal;font-size:medium;line-height:89.99999762%;font-family:Raleway;-inkscape-font-specification:'Raleway Ultra-Bold';letter-spacing:0px;word-spacing:0px;fill:#ffffff;fill-opacity:0.44606413;stroke:none;stroke-width:1px;stroke-linecap:butt;stroke-linejoin:miter;stroke-opacity:1"
       d="m 795.78041,602.28376 v 53.90923 H 608.96961 V 390.39078 h 183.441 v 53.90914 h -122.0444 v 51.66301 h 104.824 v 49.7911 h -104.824 v 56.52973 z" />
    <path
       style="opacity:1;fill:#e63e11;fill-opacity:1;fill-rule:evenodd;stroke:none;stroke-width:15.94488144;stroke-linecap:round;stroke-linejoin:round;stroke-miterlimit:4;stroke-dasharray:none;stroke-dashoffset:0;stroke-opacity:1"
       d="m 682.71121,158.00494 h 39.3266 c 108.6992,0 196.2076,87.5086 196.2076,196.20764 v 343.94054 c 0,108.69904 -87.5084,196.2076 -196.2076,196.2076 h -39.3266 c -108.69909,0 -196.20751,-87.50856 -196.20751,-196.2076 V 354.21258 c 0,-108.69904 87.50842,-196.20764 196.20751,-196.20764 z"
       id="rect5371"
       inkscape:connector-curvature="0" />
    <path
       inkscape:connector-curvature="0"
       id="path5409"
       style="font-style:normal;font-variant:normal;font-weight:800;font-stretch:normal;font-size:medium;line-height:89.99999762%;font-family:Raleway;-inkscape-font-specification:'Raleway Ultra-Bold';letter-spacing:0px;word-spacing:0px;fill:#ffffff;fill-opacity:1;stroke:none;stroke-width:1px;stroke-linecap:butt;stroke-linejoin:miter;stroke-opacity:1"
       d="m 815.33621,637.50553 v 71.0747 H 589.41293 V 358.1422 h 221.84828 v 71.07478 h -147.5975 v 68.1133 h 126.7703 v 65.64545 h -126.7703 v 74.5298 z" />
  </g>
</svg>
