<?xml version="1.0" encoding="UTF-8" standalone="no"?>
<!-- Created with Inkscape (http://www.inkscape.org/) -->

<svg
   xmlns:dc="http://purl.org/dc/elements/1.1/"
   xmlns:cc="http://creativecommons.org/ns#"
   xmlns:rdf="http://www.w3.org/1999/02/22-rdf-syntax-ns#"
   xmlns:svg="http://www.w3.org/2000/svg"
   xmlns="http://www.w3.org/2000/svg"
   xmlns:sodipodi="http://sodipodi.sourceforge.net/DTD/sodipodi-0.dtd"
   xmlns:inkscape="http://www.inkscape.org/namespaces/inkscape"
   width="240"
   height="130"
   viewBox="0 0 744.09449 1052.3622"
   id="svg4443"
   version="1.1"
   inkscape:version="0.92.4 (5da689c313, 2019-01-14)"
   sodipodi:docname="nutriscore-a.svg">
  <defs
     id="defs4445" />
  <sodipodi:namedview
     id="base"
     pagecolor="#ffffff"
     bordercolor="#666666"
     borderopacity="1.0"
     inkscape:pageopacity="0.0"
     inkscape:pageshadow="2"
     inkscape:zoom="1.979899"
     inkscape:cx="42.248478"
     inkscape:cy="35.126775"
     inkscape:document-units="px"
     inkscape:current-layer="layer1"
     showgrid="false"
     inkscape:window-width="1600"
     inkscape:window-height="837"
     inkscape:window-x="-8"
     inkscape:window-y="-8"
     inkscape:window-maximized="1" />
  <metadata
     id="metadata4448">
    <rdf:RDF>
      <cc:Work
         rdf:about="">
        <dc:format>image/svg+xml</dc:format>
        <dc:type
           rdf:resource="http://purl.org/dc/dcmitype/StillImage" />
        <dc:title />
      </cc:Work>
    </rdf:RDF>
  </metadata>
  <g
     inkscape:label="Calque 1"
     inkscape:groupmode="layer"
     id="layer1">
    <path
       style="opacity:1;fill:#038141;fill-opacity:1;fill-rule:evenodd;stroke:none;stroke-width:1;stroke-linecap:round;stroke-linejoin:round;stroke-miterlimit:4;stroke-dasharray:none;stroke-dashoffset:0;stroke-opacity:1"
       d="M 77.422444,234.17956 H 440.45244 v 586.3148 H 77.422444 Z"
       id="rect5143"
       inkscape:connector-curvature="0" />
    <path
       style="opacity:1;fill:#038141;fill-opacity:1;fill-rule:evenodd;stroke:none;stroke-width:1;stroke-linecap:round;stroke-linejoin:round;stroke-miterlimit:4;stroke-dasharray:none;stroke-dashoffset:0;stroke-opacity:1"
       d="M 3.5562241,234.17956 H 94.203804 c 75.449876,0 136.191206,60.74128 136.191206,136.19122 v 313.93237 c 0,75.44988 -60.74133,136.19121 -136.191206,136.19121 H 3.5562241 c -75.4499701,0 -136.1912041,-60.74133 -136.1912041,-136.19121 V 370.37078 c 0,-75.44994 60.741234,-136.19122 136.1912041,-136.19122 z"
       id="rect5145"
       inkscape:connector-curvature="0" />
    <path
       inkscape:connector-curvature="0"
       id="path5635"
       style="font-style:normal;font-variant:normal;font-weight:800;font-stretch:normal;font-size:medium;line-height:89.99999762%;font-family:Raleway;-inkscape-font-specification:'Raleway Ultra-Bold';letter-spacing:0px;word-spacing:0px;fill:#ffffff;fill-opacity:0.44606413;stroke:none;stroke-width:1px;stroke-linecap:butt;stroke-linejoin:miter;stroke-opacity:1"
       d="M 1.2251241,390.39104 H 56.631804 L 153.59348,656.19326 H 90.699394 l -20.59031,-59.52472 h -82.73563 l -20.21593,59.52472 h -62.89399 z m 58.7760499,163.97382 -31.07271,-93.9667 -31.8213799,93.9667 z" />
    <path
       style="opacity:1;fill:#ee8100;fill-opacity:1;fill-rule:evenodd;stroke:none;stroke-width:1;stroke-linecap:round;stroke-linejoin:round;stroke-miterlimit:4;stroke-dasharray:none;stroke-dashoffset:0;stroke-opacity:1"
       d="m 242.65502,234.17956 h 363.03009 v 586.3148 H 242.65502 Z"
       id="rect5209"
       inkscape:connector-curvature="0" />
    <path
       style="opacity:1;fill:#fecb02;fill-opacity:1;fill-rule:evenodd;stroke:none;stroke-width:1;stroke-linecap:round;stroke-linejoin:round;stroke-miterlimit:4;stroke-dasharray:none;stroke-dashoffset:0;stroke-opacity:1"
       d="m 574.19672,234.17956 h 383.32091 v 586.3148 H 574.19672 Z"
       id="rect5217"
       inkscape:connector-curvature="0" />
    <path
       style="opacity:1;fill:#85bb2f;fill-opacity:1;fill-rule:evenodd;stroke:none;stroke-width:1;stroke-linecap:round;stroke-linejoin:round;stroke-miterlimit:4;stroke-dasharray:none;stroke-dashoffset:0;stroke-opacity:1"
       d="M 592.80252,234.17956 H 229.77243 v 586.3148 h 363.03009 z"
       id="rect5219"
       inkscape:connector-curvature="0" />
    <path
       inkscape:connector-curvature="0"
       id="path5547"
       style="font-style:normal;font-variant:normal;font-weight:800;font-stretch:normal;font-size:medium;line-height:89.99999762%;font-family:Raleway;-inkscape-font-specification:'Raleway Ultra-Bold';letter-spacing:0px;word-spacing:0px;fill:#ffffff;fill-opacity:0.44606413;stroke:none;stroke-width:1px;stroke-linecap:butt;stroke-linejoin:miter;stroke-opacity:1"
       d="m 644.74866,518.79982 q 0,-23.95959 8.98486,-47.54488 8.98495,-23.95968 26.20589,-42.67817 17.22104,-18.71838 41.9294,-30.32384 24.70835,-11.60545 56.15535,-11.60545 37.43696,0 64.76592,16.09788 27.70334,16.09788 41.18062,41.9293 l -47.17049,32.94454 q -4.49243,-10.48231 -11.60546,-17.22095 -6.73864,-7.11302 -14.97482,-11.23116 -8.23609,-4.49243 -16.84656,-5.98988 -8.61057,-1.87183 -16.84666,-1.87183 -17.59532,0 -30.69832,7.11303 -13.1029,7.11303 -21.71337,18.3441 -8.61047,11.23107 -12.72861,25.45712 -4.11804,14.22596 -4.11804,28.8264 0,15.7235 4.86681,30.32394 4.86681,14.60034 13.85167,25.83151 9.35924,11.23107 22.08776,17.96971 13.10299,6.36426 29.20087,6.36426 8.23609,0 16.84656,-1.87183 8.98486,-2.24621 16.84666,-6.36426 8.23608,-4.49242 14.97472,-11.23116 6.73865,-7.11293 10.85679,-17.22094 l 50.16548,29.57516 q -5.98997,14.60044 -17.96972,26.2059 -11.60545,11.60545 -26.95466,19.46716 -15.34912,7.86179 -32.57006,11.97984 -17.22104,4.11804 -33.69331,4.11804 -28.82639,0 -53.16046,-11.60546 -23.95958,-11.97984 -41.55491,-31.44699 -17.22104,-19.46726 -26.95467,-44.17561 -9.35924,-24.70836 -9.35924,-50.16548 z" />
    <path
       inkscape:connector-curvature="0"
       id="path5544"
       style="font-style:normal;font-variant:normal;font-weight:800;font-stretch:normal;font-size:medium;line-height:89.99999762%;font-family:Raleway;-inkscape-font-specification:'Raleway Ultra-Bold';letter-spacing:0px;word-spacing:0px;fill:#ffffff;fill-opacity:0.44606413;stroke:none;stroke-width:1px;stroke-linecap:butt;stroke-linejoin:miter;stroke-opacity:1"
       d="m 540.48971,588.05807 q 0,17.22104 -7.11303,29.94955 -7.11303,12.72861 -19.46725,21.33909 -12.35413,8.23608 -28.8264,12.72851 -16.47226,4.11804 -34.81636,4.11804 H 320.73483 V 390.39104 h 147.87594 q 13.85166,0 25.08273,5.98997 11.23107,5.98987 19.09287,15.7235 7.8617,9.35924 11.97984,21.71337 4.49243,11.97984 4.49243,24.70845 0,19.09277 -9.73363,35.93942 -9.35924,16.84666 -28.45211,25.45713 22.83653,6.73864 35.93952,23.95958 13.47729,17.22104 13.47729,44.17561 z m -62.5197,-12.35413 q 0,-12.35422 -7.11303,-20.9647 -7.11303,-8.61056 -17.96971,-8.61056 h -70.7558 v 58.02727 h 68.1352 q 11.97984,0 19.84154,-7.8617 7.8618,-7.86179 7.8618,-20.59031 z M 382.13147,442.80273 v 55.0323 h 60.2734 q 10.10801,0 17.96981,-6.73865 7.8617,-6.73864 7.8617,-20.9646 0,-13.10299 -7.11303,-20.21602 -6.73864,-7.11303 -16.47227,-7.11303 z" />
    <path
       style="opacity:1;fill:#0039ff;fill-opacity:0.62973764;fill-rule:evenodd;stroke:#ffffff;stroke-width:61.03178787;stroke-linecap:round;stroke-linejoin:round;stroke-miterlimit:4;stroke-dasharray:none;stroke-dashoffset:0;stroke-opacity:1"
       d="m 13.297184,158.00486 h 39.3264 c 108.699036,0 196.207746,87.50863 196.207746,196.2077 v 343.94055 c 0,108.69904 -87.50871,196.20761 -196.207746,196.20761 h -39.3264 c -108.69905,0 -196.207664,-87.50857 -196.207664,-196.20761 V 354.21256 c 0,-108.69907 87.508614,-196.2077 196.207664,-196.2077 z"
       id="rect5229"
       inkscape:connector-curvature="0" />
    <path
       style="opacity:1;fill:#038141;fill-opacity:1;fill-rule:evenodd;stroke:none;stroke-width:15.94488144;stroke-linecap:round;stroke-linejoin:round;stroke-miterlimit:4;stroke-dasharray:none;stroke-dashoffset:0;stroke-opacity:1"
       d="m 13.297184,158.00486 h 39.3264 c 108.699036,0 196.207746,87.50863 196.207746,196.2077 v 343.94055 c 0,108.69904 -87.50871,196.20761 -196.207746,196.20761 h -39.3264 c -108.69905,0 -196.207664,-87.50857 -196.207664,-196.20761 V 354.21256 c 0,-108.69907 87.508614,-196.2077 196.207664,-196.2077 z"
       id="rect5231"
       inkscape:connector-curvature="0" />
    <path
       inkscape:connector-curvature="0"
       id="path5539"
       style="font-style:normal;font-variant:normal;font-weight:800;font-stretch:normal;font-size:medium;line-height:89.99999762%;font-family:Raleway;-inkscape-font-specification:'Raleway Ultra-Bold';letter-spacing:0px;word-spacing:0px;fill:#ffffff;fill-opacity:1;stroke:none;stroke-width:1px;stroke-linecap:butt;stroke-linejoin:miter;stroke-opacity:1"
       d="M -0.54325594,358.14246 H 66.464014 L 183.7268,708.5805 H 107.66444 L 82.763094,630.10204 h -100.05822 l -24.44864,78.47846 H -117.80596 Z M 70.538764,574.32812 32.960384,450.44089 -5.5235059,574.32812 Z" />
  </g>
</svg>
